# xmcd
# Copyright (C) 1995-1998 Ti Kan
#
# Track frame offsets:
#       150
#       22960
#       38385
#       53473
#       69248
#       78827
#       96726
#       110580
#       117622
#       125011
#       140129
#       151681
#       165547
#       178901
#       196755
#
# Disc length: 2810 seconds
#
# Revision: 0
# Processed by: cddbd v1.5.2PL0 Copyright (c) Steve Scherf et al.
# Submitted via: CD-Import v1.0
#
DISCID=c30af80f
DTITLE=Kid Carpet - Casio Royale
DYEAR=2008
DGENRE=
TTITLE0=Hitting The Wall
TTITLE1=Don't Want To Fall In Love With You
TTITLE2=Still Life
TTITLE3=Make It Look Good
TTITLE4=Can't Stop The Pop
TTITLE5=I Don't Believe
TTITLE6=All Join On
TTITLE7=So Much Fun
TTITLE8=Ace Like Space
TTITLE9=Failed World Record Attempt
TTITLE10=Solitaire
TTITLE11=Help Yourself
TTITLE12=Employee Of The Month
TTITLE13=Trouble With Folk
TTITLE14=Cowboy
EXTD=
EXTT0=
EXTT1=
EXTT2=
EXTT3=
EXTT4=
EXTT5=
EXTT6=
EXTT7=
EXTT8=
EXTT9=
EXTT10=
EXTT11=
EXTT12=
EXTT13=
EXTT14=
PLAYORDER=
